<svg width="9" height="16" viewBox="0 0 9 16" fill="none" xmlns="http://www.w3.org/2000/svg">
<path opacity="0.4" d="M6.40374 0.900391C6.83288 0.900391 7.26529 0.921338 7.69225 0.939294C7.97109 0.950266 8.25101 0.986177 8.51241 1.01211L8.49281 3.37722H8.28695C8.00376 3.37722 7.71948 3.37722 7.43629 3.37722C7.21846 3.37722 7.01042 3.37722 6.79803 3.3852C6.11293 3.40614 5.60972 3.64156 5.57487 4.4246C5.55309 4.9892 5.53784 6.23409 5.53675 6.29993C5.57269 6.29993 6.24908 6.29993 6.92982 6.29993C7.27074 6.29993 7.60294 6.29993 7.83494 6.29993H8.38825C8.24992 7.20866 8.12248 8.08049 7.98416 8.9583H5.53784L5.48338 15.5967H2.47721L2.53276 8.94733H0.0744629L0.0962467 6.30392H2.56544V6.10442C2.56544 5.57174 2.56544 5.03907 2.58504 4.50839C2.58775 4.16887 2.61907 3.83004 2.67871 3.49492C2.745 3.10203 2.8957 2.72509 3.12211 2.3859C3.34852 2.0467 3.64613 1.752 3.99772 1.51885C4.63392 1.1151 5.39011 0.899926 6.16412 0.902386L6.40374 0.900391Z" fill="#091D3E"/>
</svg>
