<svg width="20" height="12" viewBox="0 0 20 12" fill="none" xmlns="http://www.w3.org/2000/svg">
<path opacity="0.4" d="M5.98757 11.6694C4.69251 11.6067 3.45637 11.1538 2.47145 10.3812C1.48654 9.60851 0.808077 8.55939 0.541623 7.39702C0.425396 6.91734 0.388676 6.42436 0.432702 5.93467C0.50451 4.79595 0.973757 3.70846 1.77132 2.8324C2.58265 1.90716 3.70489 1.25318 4.96373 0.972039C5.28429 0.89422 5.61281 0.847084 5.944 0.83139C6.13243 0.826402 6.32195 0.81543 6.50929 0.81543C7.49619 0.819041 8.46439 1.0624 9.31504 1.52067C9.68779 1.72546 10.0389 1.96156 10.3639 2.22591C9.7725 2.75958 9.20286 3.28128 8.62123 3.80398C8.14432 3.38987 7.53884 3.1215 6.88832 3.03589C6.721 3.01321 6.55209 3.00188 6.38294 3.00198C5.58547 3.01219 4.81493 3.26785 4.19536 3.72779C3.57578 4.18774 3.14321 4.82523 2.96724 5.53766C2.88065 5.85875 2.85269 6.19075 2.88447 6.52021C2.94046 7.15738 3.20032 7.76529 3.63156 8.26793C4.0628 8.77056 4.64627 9.1456 5.309 9.34616C5.64396 9.44171 5.9929 9.48982 6.34373 9.4888C6.42651 9.4888 6.5082 9.4888 6.59098 9.48282C7.20704 9.4572 7.80463 9.28233 8.32279 8.97608C8.62809 8.78971 8.88935 8.54902 9.09106 8.26833C9.29276 7.98764 9.43079 7.67267 9.49694 7.34216H6.32086C6.32086 7.27034 6.33284 5.91073 6.3372 5.24738L6.34264 5.1596H11.9215C12.0983 5.94844 12.096 6.76216 11.9148 7.55017C11.7337 8.33818 11.3774 9.08364 10.8682 9.74018C10.1401 10.6179 9.10311 11.2381 7.93286 11.4958C7.40988 11.6194 6.87188 11.6818 6.33176 11.6813C6.21848 11.6813 6.10302 11.6773 5.98757 11.6694ZM16.9982 8.60401H15.4363V8.55114L15.4515 6.71273H13.3821V6.65687L13.393 5.28528V5.23142H15.4624L15.4788 3.39001V3.33515H17.0995V3.39001L17.0842 5.23441H19.1537V5.28528L19.1417 6.65886V6.71672H17.0723L17.0581 8.55513V8.608L16.9982 8.60401Z" fill="#091D3E"/>
</svg>
