<svg width="15" height="14" viewBox="0 0 15 14" fill="none" xmlns="http://www.w3.org/2000/svg">
<path opacity="0.4" d="M7.0707 13.7489C5.75137 13.7881 4.4308 13.7237 3.12348 13.5563C2.38354 13.4208 1.71004 13.0728 1.20079 12.5628C0.691538 12.0528 0.373048 11.4074 0.291583 10.7204C0.0704774 8.28813 0.115358 5.84171 0.425554 3.41761C0.596226 2.75642 0.984753 2.15928 1.53847 1.70713C2.09218 1.25498 2.78431 0.969684 3.52103 0.889914C4.70265 0.768656 5.89175 0.719337 7.0805 0.742282C8.29495 0.742282 9.65643 0.77121 10.5485 0.816098C11.5141 0.837121 12.4374 1.18338 13.1418 1.78867C13.8054 2.37519 14.2089 3.16568 14.2746 4.00814C14.4389 6.33947 14.3872 8.67937 14.1199 11.0027C13.9595 11.682 13.5707 12.2982 13.0083 12.7648C12.4459 13.2313 11.7381 13.5249 10.9842 13.6042C9.68362 13.719 8.37711 13.7673 7.0707 13.7489ZM7.3223 1.92134C5.82358 1.92134 4.47299 1.95925 3.88156 2.02109C3.31432 2.05353 2.77725 2.26631 2.36304 2.62271C1.94883 2.97911 1.68347 3.45677 1.61277 3.97323C1.41921 6.15798 1.40283 8.35288 1.56376 10.5399C1.60953 10.9756 1.80317 11.3872 2.1175 11.7169C2.43183 12.0467 2.85104 12.2779 3.31626 12.3783C4.58192 12.5353 5.85923 12.5996 7.13605 12.5708C8.60537 12.5708 10.0769 12.5299 10.6389 12.471C11.2104 12.44 11.7517 12.2255 12.1676 11.8652C12.5836 11.5049 12.8475 11.0218 12.9131 10.501C13.1008 8.37723 13.1302 6.24426 13.0013 4.11687C12.9736 3.59612 12.7442 3.10144 12.3545 2.72145C11.9647 2.34145 11.4399 2.10095 10.8742 2.04304C9.69367 1.94084 8.50786 1.89921 7.3223 1.91835V1.92134ZM7.2319 10.5847C6.75467 10.5853 6.28207 10.4991 5.84146 10.3312C5.40086 10.1633 5.001 9.91699 4.66508 9.60655C4.32915 9.29611 4.06381 8.92772 3.88445 8.5227C3.70508 8.11769 3.61525 7.6841 3.62015 7.24706C3.62959 6.36197 4.01926 5.51589 4.70481 4.89197C5.39035 4.26804 6.31662 3.91648 7.2831 3.91338H7.2918C7.76904 3.91309 8.24161 3.99948 8.68215 4.16755C9.1227 4.33561 9.52248 4.58202 9.85836 4.89251C10.1942 5.203 10.4596 5.57141 10.639 5.97642C10.8184 6.38143 10.9083 6.815 10.9036 7.25205C10.8924 8.13766 10.5008 8.98362 9.81366 9.6068C9.12649 10.23 8.19897 10.5802 7.2319 10.5817V10.5847ZM7.27873 5.08845C6.65678 5.0904 6.0603 5.31496 5.61666 5.71418C5.17302 6.1134 4.91737 6.65564 4.9043 7.22512C4.89838 7.50771 4.95375 7.78857 5.06718 8.05143C5.18062 8.31429 5.34988 8.55393 5.56515 8.75646C5.78042 8.95899 6.03743 9.1204 6.32129 9.23132C6.60515 9.34225 6.91022 9.4005 7.21883 9.40269H7.23953C7.86179 9.40048 8.4585 9.17577 8.90246 8.77644C9.34642 8.37712 9.60251 7.83477 9.61614 7.26502C9.6222 6.98226 9.56691 6.70121 9.45347 6.43817C9.34003 6.17513 9.17071 5.93533 8.95531 5.73268C8.7399 5.53002 8.48272 5.36855 8.19866 5.25762C7.9146 5.14669 7.60932 5.08851 7.30052 5.08645L7.27873 5.08845ZM11.0691 4.56675C10.9571 4.56629 10.8463 4.54563 10.743 4.50596C10.6398 4.46628 10.546 4.40836 10.4672 4.33551C10.3883 4.26266 10.3259 4.1763 10.2836 4.08136C10.2412 3.98643 10.2196 3.88477 10.2201 3.7822C10.2206 3.67963 10.2431 3.57816 10.2865 3.48357C10.3298 3.38899 10.393 3.30314 10.4726 3.23094C10.5521 3.15873 10.6464 3.10159 10.7501 3.06276C10.8537 3.02393 10.9647 3.00418 11.0767 3.00464H11.0865C11.1978 3.00439 11.308 3.02446 11.4107 3.06368C11.5133 3.10291 11.6064 3.16049 11.6845 3.23307C11.7638 3.30604 11.8264 3.39276 11.8687 3.48816C11.911 3.58357 11.932 3.68574 11.9307 3.78869C11.9267 3.99535 11.8343 4.19232 11.6734 4.33726C11.5125 4.4822 11.2959 4.56352 11.0702 4.56375L11.0691 4.56675Z" fill="#091D3E"/>
</svg>
