<svg width="16" height="12" viewBox="0 0 16 12" fill="none" xmlns="http://www.w3.org/2000/svg">
<path opacity="0.4" d="M15.4147 2.04292C15.3093 2.19224 15.194 2.33549 15.0694 2.47185C14.7464 2.83788 14.3717 3.16293 13.9552 3.43844L13.9029 3.52722C13.9173 3.94085 13.8947 4.35487 13.8354 4.76513C13.584 6.53037 12.7182 8.17442 11.3662 9.45344C10.2275 10.5359 8.76083 11.2811 7.15535 11.5931C6.59554 11.7016 6.02607 11.7631 5.45404 11.7766C5.36146 11.7766 5.26997 11.7766 5.17848 11.7766C3.55385 11.783 1.96092 11.365 0.586454 10.5717L0.51239 10.5298C0.750447 10.5529 0.989675 10.5646 1.22908 10.5647C2.03068 10.5655 2.82484 10.4239 3.56756 10.1477C4.08987 9.95179 4.57967 9.68989 5.02272 9.36965C4.39063 9.35693 3.77878 9.16312 3.27318 8.81548C2.76757 8.46783 2.39363 7.98382 2.2039 7.43148C2.39051 7.46467 2.58018 7.48138 2.77028 7.48136C3.01999 7.4819 3.26891 7.45579 3.51202 7.40355L3.55776 7.3826C2.8687 7.24953 2.25166 6.90104 1.81247 6.39689C1.37327 5.89274 1.13929 5.26435 1.15065 4.61949C1.56713 4.82735 2.03147 4.94187 2.50561 4.95366C1.87219 4.55234 1.42803 3.94637 1.26236 3.25749C1.09669 2.56861 1.22176 1.84782 1.61247 1.23992C2.37462 2.10118 3.32588 2.80614 4.40459 3.30912C5.4833 3.81211 6.66539 4.10187 7.87422 4.15964C7.85788 4.04493 7.84155 3.95116 7.82521 3.85141C7.74026 3.21168 7.90708 2.56518 8.29574 2.02795C8.5189 1.69161 8.81984 1.40414 9.17738 1.18579C9.53492 0.96743 9.94037 0.823493 10.3652 0.764106C10.5487 0.735362 10.7345 0.72068 10.9207 0.720215C11.3143 0.720991 11.7038 0.794143 12.066 0.935334C12.4283 1.07652 12.7558 1.28288 13.0294 1.54217C13.0575 1.57045 13.0966 1.58762 13.1383 1.59005C13.1541 1.58989 13.1698 1.58788 13.1851 1.58406C13.8102 1.46468 14.4106 1.25491 14.9638 0.962611L15.0041 0.941663C14.7862 1.57491 14.3259 2.11478 13.7079 2.46187C14.2966 2.40154 14.872 2.2603 15.4147 2.04292Z" fill="#091D3E"/>
</svg>
